# xmcd CD database file
#
# Track frame offsets:
#	150
#	13091
#	25902
#	46931
#	58423
#	75548
#	88248
#	104416
#	118182
#	131411
#	137600
#	151772
#	172042
#	184808
#	199834
#
# Disc length: 2902 seconds
#
# Revision: 0
# Processed by: cddbd v1.5.2PL0 Copyright (c) Steve Scherf et al.
# Submitted via: CDex 1.51
#
DISCID=cd0b540f
DTITLE=Taj Mahal - Songs for the yong at Heart
DYEAR=2006
DGENRE=Blues
TTITLE0=Banana boat song
TTITLE1=Three little birds
TTITLE2=Everyday people
TTITLE3=Rockin' Robin
TTITLE4=Fishin' Blues
TTITLE5=Colon Man
TTITLE6=Funky Bluesy ABC's
TTITLE7=Shake Sugaree
TTITLE8=Quavi, Quavi
TTITLE9=A Soulful Tune
TTITLE10=Willie and the Hand Jive
TTITLE11=Little Liza Jane
TTITLE12=Brown Girl in the Ring
TTITLE13=Follow the Drinking Gourd
TTITLE14=Little Brown Dog
EXTD=YEAR: 2006
EXTT0=
EXTT1=
EXTT2=
EXTT3=
EXTT4=
EXTT5=
EXTT6=
EXTT7=
EXTT8=
EXTT9=
EXTT10=
EXTT11=
EXTT12=
EXTT13=
EXTT14=
PLAYORDER=
